<svg width="33" height="27" viewBox="0 0 33 27" fill="none" xmlns="http://www.w3.org/2000/svg">
<path d="M3.50391 0.453125L5.94141 2.07812C6.5 2.48438 6.65234 3.24609 6.29688 3.80469C5.89062 4.36328 5.12891 4.51562 4.57031 4.10938L2.13281 2.48438C1.57422 2.12891 1.42188 1.36719 1.82812 0.808594C2.18359 0.25 2.94531 0.0976562 3.50391 0.453125ZM30.3164 2.48438L27.8789 4.10938C27.3203 4.51562 26.5586 4.36328 26.2031 3.80469C25.7969 3.24609 25.9492 2.48438 26.5078 2.07812L28.9453 0.453125C29.5039 0.0976562 30.2656 0.25 30.6719 0.808594C31.0273 1.36719 30.875 2.12891 30.3164 2.48438ZM1.21875 8.375H4.46875C5.12891 8.375 5.6875 8.93359 5.6875 9.59375C5.6875 10.3047 5.12891 10.8125 4.46875 10.8125H1.21875C0.507812 10.8125 0 10.3047 0 9.59375C0 8.93359 0.507812 8.375 1.21875 8.375ZM28.0312 8.375H31.2812C31.9414 8.375 32.5 8.93359 32.5 9.59375C32.5 10.3047 31.9414 10.8125 31.2812 10.8125H28.0312C27.3203 10.8125 26.8125 10.3047 26.8125 9.59375C26.8125 8.93359 27.3203 8.375 28.0312 8.375ZM5.94141 17.1094L3.50391 18.7344C2.94531 19.1406 2.18359 18.9883 1.82812 18.4297C1.42188 17.8711 1.57422 17.1094 2.13281 16.7031L4.57031 15.0781C5.12891 14.7227 5.89062 14.875 6.29688 15.4336C6.65234 15.9922 6.5 16.7539 5.94141 17.1094ZM27.8789 15.1289L30.3164 16.7539C30.875 17.1094 31.0273 17.8711 30.6719 18.4297C30.2656 18.9883 29.5039 19.1406 28.9453 18.7852L26.5078 17.1602C25.9492 16.7539 25.7969 15.9922 26.2031 15.4336C26.5586 14.875 27.3203 14.7227 27.8789 15.1289ZM22.8008 15.3828C21.7852 16.7539 20.7695 18.1758 20.3125 19.75H12.1875C11.6797 18.1758 10.6641 16.7539 9.64844 15.3828C9.39453 15.0273 9.14062 14.6719 8.88672 14.3164C7.87109 12.8438 7.3125 11.1172 7.3125 9.1875C7.3125 4.26172 11.2734 0.25 16.25 0.25C21.1758 0.25 25.1875 4.26172 25.1875 9.1875C25.1875 11.1172 24.5781 12.8438 23.5625 14.3164C23.3086 14.6719 23.0547 15.0273 22.8008 15.3828ZM20.3125 22.1875C20.3125 24.4727 18.4844 26.25 16.25 26.25C13.9648 26.25 12.1875 24.4727 12.1875 22.1875V21.375H20.3125V22.1875ZM17.4688 4.71875C17.4688 4.05859 16.9102 3.5 16.25 3.5C15.5391 3.5 15.0312 4.05859 15.0312 4.71875V10.4062C15.0312 11.1172 15.5391 11.625 16.25 11.625C16.9102 11.625 17.4688 11.1172 17.4688 10.4062V4.71875ZM16.25 16.5C17.1133 16.5 17.875 15.7891 17.875 14.875C17.875 14.0117 17.1133 13.25 16.25 13.25C15.3359 13.25 14.625 14.0117 14.625 14.875C14.625 15.7891 15.3359 16.5 16.25 16.5Z" fill="#BC6C25"/>
<path d="M3.50391 0.453125L5.94141 2.07812C6.5 2.48438 6.65234 3.24609 6.29688 3.80469C5.89062 4.36328 5.12891 4.51562 4.57031 4.10938L2.13281 2.48438C1.57422 2.12891 1.42188 1.36719 1.82812 0.808594C2.18359 0.25 2.94531 0.0976562 3.50391 0.453125ZM30.3164 2.48438L27.8789 4.10938C27.3203 4.51562 26.5586 4.36328 26.2031 3.80469C25.7969 3.24609 25.9492 2.48438 26.5078 2.07812L28.9453 0.453125C29.5039 0.0976562 30.2656 0.25 30.6719 0.808594C31.0273 1.36719 30.875 2.12891 30.3164 2.48438ZM1.21875 8.375H4.46875C5.12891 8.375 5.6875 8.93359 5.6875 9.59375C5.6875 10.3047 5.12891 10.8125 4.46875 10.8125H1.21875C0.507812 10.8125 0 10.3047 0 9.59375C0 8.93359 0.507812 8.375 1.21875 8.375ZM28.0312 8.375H31.2812C31.9414 8.375 32.5 8.93359 32.5 9.59375C32.5 10.3047 31.9414 10.8125 31.2812 10.8125H28.0312C27.3203 10.8125 26.8125 10.3047 26.8125 9.59375C26.8125 8.93359 27.3203 8.375 28.0312 8.375ZM5.94141 17.1094L3.50391 18.7344C2.94531 19.1406 2.18359 18.9883 1.82812 18.4297C1.42188 17.8711 1.57422 17.1094 2.13281 16.7031L4.57031 15.0781C5.12891 14.7227 5.89062 14.875 6.29688 15.4336C6.65234 15.9922 6.5 16.7539 5.94141 17.1094ZM27.8789 15.1289L30.3164 16.7539C30.875 17.1094 31.0273 17.8711 30.6719 18.4297C30.2656 18.9883 29.5039 19.1406 28.9453 18.7852L26.5078 17.1602C25.9492 16.7539 25.7969 15.9922 26.2031 15.4336C26.5586 14.875 27.3203 14.7227 27.8789 15.1289ZM22.8008 15.3828C21.7852 16.7539 20.7695 18.1758 20.3125 19.75H12.1875C11.6797 18.1758 10.6641 16.7539 9.64844 15.3828C9.39453 15.0273 9.14062 14.6719 8.88672 14.3164C7.87109 12.8438 7.3125 11.1172 7.3125 9.1875C7.3125 4.26172 11.2734 0.25 16.25 0.25C21.1758 0.25 25.1875 4.26172 25.1875 9.1875C25.1875 11.1172 24.5781 12.8438 23.5625 14.3164C23.3086 14.6719 23.0547 15.0273 22.8008 15.3828ZM20.3125 22.1875C20.3125 24.4727 18.4844 26.25 16.25 26.25C13.9648 26.25 12.1875 24.4727 12.1875 22.1875V21.375H20.3125V22.1875ZM17.4688 4.71875C17.4688 4.05859 16.9102 3.5 16.25 3.5C15.5391 3.5 15.0312 4.05859 15.0312 4.71875V10.4062C15.0312 11.1172 15.5391 11.625 16.25 11.625C16.9102 11.625 17.4688 11.1172 17.4688 10.4062V4.71875ZM16.25 16.5C17.1133 16.5 17.875 15.7891 17.875 14.875C17.875 14.0117 17.1133 13.25 16.25 13.25C15.3359 13.25 14.625 14.0117 14.625 14.875C14.625 15.7891 15.3359 16.5 16.25 16.5Z" fill="white"/>
</svg>