<svg width="30" height="27" viewBox="0 0 30 27" fill="none" xmlns="http://www.w3.org/2000/svg">
<path d="M2.125 0.25H3.75H16.75H18.375C19.2383 0.25 20 1.01172 20 1.875C20 2.78906 19.2383 3.5 18.375 3.5V4.05859C18.375 6.24219 17.5117 8.32422 15.9883 9.84766L12.5352 13.25L14.3633 15.0781C13.8047 16.2461 13.5 17.5664 13.5 18.9375C13.5 21.9844 14.9727 24.6758 17.2578 26.25H16.75H3.75H2.125C1.21094 26.25 0.5 25.5391 0.5 24.625C0.5 23.7617 1.21094 23 2.125 23V22.4414C2.125 20.3086 2.9375 18.2266 4.46094 16.7031L7.91406 13.25L4.46094 9.84766C2.9375 8.32422 2.125 6.24219 2.125 4.05859V3.5C1.21094 3.5 0.5 2.78906 0.5 1.875C0.5 1.01172 1.21094 0.25 2.125 0.25ZM5.375 4.05859C5.375 5.02344 5.62891 5.98828 6.1875 6.75H14.3125C14.8203 5.98828 15.125 5.02344 15.125 4.05859V3.5H5.375V4.05859ZM29.75 18.9375C29.75 23 26.4492 26.25 22.4375 26.25C18.375 26.25 15.125 23 15.125 18.9375C15.125 14.9258 18.375 11.625 22.4375 11.625C26.4492 11.625 29.75 14.9258 29.75 18.9375ZM22.4375 14.875C21.9805 14.875 21.625 15.2812 21.625 15.6875V18.9375C21.625 19.3945 21.9805 19.75 22.4375 19.75H24.875C25.2812 19.75 25.6875 19.3945 25.6875 18.9375C25.6875 18.5312 25.2812 18.125 24.875 18.125H23.25V15.6875C23.25 15.2812 22.8438 14.875 22.4375 14.875Z" fill="#BC6C25"/>
<path d="M2.125 0.25H3.75H16.75H18.375C19.2383 0.25 20 1.01172 20 1.875C20 2.78906 19.2383 3.5 18.375 3.5V4.05859C18.375 6.24219 17.5117 8.32422 15.9883 9.84766L12.5352 13.25L14.3633 15.0781C13.8047 16.2461 13.5 17.5664 13.5 18.9375C13.5 21.9844 14.9727 24.6758 17.2578 26.25H16.75H3.75H2.125C1.21094 26.25 0.5 25.5391 0.5 24.625C0.5 23.7617 1.21094 23 2.125 23V22.4414C2.125 20.3086 2.9375 18.2266 4.46094 16.7031L7.91406 13.25L4.46094 9.84766C2.9375 8.32422 2.125 6.24219 2.125 4.05859V3.5C1.21094 3.5 0.5 2.78906 0.5 1.875C0.5 1.01172 1.21094 0.25 2.125 0.25ZM5.375 4.05859C5.375 5.02344 5.62891 5.98828 6.1875 6.75H14.3125C14.8203 5.98828 15.125 5.02344 15.125 4.05859V3.5H5.375V4.05859ZM29.75 18.9375C29.75 23 26.4492 26.25 22.4375 26.25C18.375 26.25 15.125 23 15.125 18.9375C15.125 14.9258 18.375 11.625 22.4375 11.625C26.4492 11.625 29.75 14.9258 29.75 18.9375ZM22.4375 14.875C21.9805 14.875 21.625 15.2812 21.625 15.6875V18.9375C21.625 19.3945 21.9805 19.75 22.4375 19.75H24.875C25.2812 19.75 25.6875 19.3945 25.6875 18.9375C25.6875 18.5312 25.2812 18.125 24.875 18.125H23.25V15.6875C23.25 15.2812 22.8438 14.875 22.4375 14.875Z" fill="white"/>
</svg>
