<svg width="27" height="27" viewBox="0 0 27 27" fill="none" xmlns="http://www.w3.org/2000/svg">
<path d="M24.0625 0.605469C24.5195 0.148438 25.2812 0.148438 25.7383 0.605469L26.1445 1.01172C26.6016 1.46875 26.6016 2.23047 26.1445 2.6875L21.8281 7.5625C21.6758 7.71484 21.625 7.91797 21.625 8.12109V9.1875C21.625 9.64453 21.2188 10 20.8125 10H20C19.7461 10 19.543 10.1016 19.3906 10.3047L5.57812 25.6914C5.27344 26.0469 4.81641 26.25 4.30859 26.25C3.90234 26.25 3.44531 26.0977 3.14062 25.793L0.957031 23.6094C0.652344 23.3047 0.5 22.8477 0.5 22.4414C0.5 21.9336 0.703125 21.4766 1.05859 21.1719L6.69531 16.0938C6.89844 15.9414 7 15.7383 7 15.4844V14.0625C7 13.6562 7.35547 13.25 7.8125 13.25H9.53906C9.74219 13.25 9.94531 13.1992 10.0977 13.0469L24.0625 0.605469ZM22.4375 14.875C22.5898 14.875 22.7422 15.0273 22.793 15.1797L23.5547 17.8203L26.1953 18.582C26.3477 18.6328 26.5 18.7852 26.5 18.9375C26.5 19.1406 26.3477 19.293 26.1953 19.3438L23.5547 20.1055L22.793 22.7461C22.7422 22.8984 22.5898 23 22.4375 23C22.2344 23 22.082 22.8984 22.0312 22.7461L21.2695 20.1055L18.6289 19.3438C18.4766 19.293 18.375 19.1406 18.375 18.9375C18.375 18.7852 18.4766 18.6328 18.6289 18.582L21.2695 17.8203L22.0312 15.1797C22.082 15.0273 22.2344 14.875 22.4375 14.875ZM4.91797 3.80469L5.67969 6.44531L8.32031 7.20703C8.47266 7.25781 8.625 7.41016 8.625 7.5625C8.625 7.76562 8.47266 7.91797 8.32031 7.96875L5.67969 8.73047L4.91797 11.3711C4.86719 11.5234 4.71484 11.625 4.5625 11.625C4.35938 11.625 4.20703 11.5234 4.15625 11.3711L3.39453 8.73047L0.753906 7.96875C0.601562 7.91797 0.5 7.76562 0.5 7.5625C0.5 7.41016 0.601562 7.25781 0.753906 7.20703L3.39453 6.44531L4.15625 3.80469C4.20703 3.65234 4.35938 3.5 4.5625 3.5C4.71484 3.5 4.86719 3.65234 4.91797 3.80469ZM11.875 0.25C12.0273 0.25 12.1797 0.402344 12.2305 0.605469L12.5859 1.97656L13.957 2.33203C14.1602 2.38281 14.3125 2.53516 14.3125 2.6875C14.3125 2.89062 14.1602 3.04297 13.957 3.09375L12.5859 3.44922L12.2305 4.82031C12.1797 5.02344 12.0273 5.125 11.875 5.125C11.6719 5.125 11.5195 5.02344 11.4688 4.82031L11.1133 3.44922L9.74219 3.09375C9.53906 3.04297 9.4375 2.89062 9.4375 2.6875C9.4375 2.53516 9.53906 2.38281 9.74219 2.33203L11.1133 1.97656L11.4688 0.605469C11.5195 0.402344 11.6719 0.25 11.875 0.25Z" fill="#BC6C25"/>
<path d="M24.0625 0.605469C24.5195 0.148438 25.2812 0.148438 25.7383 0.605469L26.1445 1.01172C26.6016 1.46875 26.6016 2.23047 26.1445 2.6875L21.8281 7.5625C21.6758 7.71484 21.625 7.91797 21.625 8.12109V9.1875C21.625 9.64453 21.2188 10 20.8125 10H20C19.7461 10 19.543 10.1016 19.3906 10.3047L5.57812 25.6914C5.27344 26.0469 4.81641 26.25 4.30859 26.25C3.90234 26.25 3.44531 26.0977 3.14062 25.793L0.957031 23.6094C0.652344 23.3047 0.5 22.8477 0.5 22.4414C0.5 21.9336 0.703125 21.4766 1.05859 21.1719L6.69531 16.0938C6.89844 15.9414 7 15.7383 7 15.4844V14.0625C7 13.6562 7.35547 13.25 7.8125 13.25H9.53906C9.74219 13.25 9.94531 13.1992 10.0977 13.0469L24.0625 0.605469ZM22.4375 14.875C22.5898 14.875 22.7422 15.0273 22.793 15.1797L23.5547 17.8203L26.1953 18.582C26.3477 18.6328 26.5 18.7852 26.5 18.9375C26.5 19.1406 26.3477 19.293 26.1953 19.3438L23.5547 20.1055L22.793 22.7461C22.7422 22.8984 22.5898 23 22.4375 23C22.2344 23 22.082 22.8984 22.0312 22.7461L21.2695 20.1055L18.6289 19.3438C18.4766 19.293 18.375 19.1406 18.375 18.9375C18.375 18.7852 18.4766 18.6328 18.6289 18.582L21.2695 17.8203L22.0312 15.1797C22.082 15.0273 22.2344 14.875 22.4375 14.875ZM4.91797 3.80469L5.67969 6.44531L8.32031 7.20703C8.47266 7.25781 8.625 7.41016 8.625 7.5625C8.625 7.76562 8.47266 7.91797 8.32031 7.96875L5.67969 8.73047L4.91797 11.3711C4.86719 11.5234 4.71484 11.625 4.5625 11.625C4.35938 11.625 4.20703 11.5234 4.15625 11.3711L3.39453 8.73047L0.753906 7.96875C0.601562 7.91797 0.5 7.76562 0.5 7.5625C0.5 7.41016 0.601562 7.25781 0.753906 7.20703L3.39453 6.44531L4.15625 3.80469C4.20703 3.65234 4.35938 3.5 4.5625 3.5C4.71484 3.5 4.86719 3.65234 4.91797 3.80469ZM11.875 0.25C12.0273 0.25 12.1797 0.402344 12.2305 0.605469L12.5859 1.97656L13.957 2.33203C14.1602 2.38281 14.3125 2.53516 14.3125 2.6875C14.3125 2.89062 14.1602 3.04297 13.957 3.09375L12.5859 3.44922L12.2305 4.82031C12.1797 5.02344 12.0273 5.125 11.875 5.125C11.6719 5.125 11.5195 5.02344 11.4688 4.82031L11.1133 3.44922L9.74219 3.09375C9.53906 3.04297 9.4375 2.89062 9.4375 2.6875C9.4375 2.53516 9.53906 2.38281 9.74219 2.33203L11.1133 1.97656L11.4688 0.605469C11.5195 0.402344 11.6719 0.25 11.875 0.25Z" fill="white"/>
</svg>
