<svg width="23" height="27" viewBox="0 0 23 27" fill="none" xmlns="http://www.w3.org/2000/svg">
<path d="M11.375 13.25C7.76953 13.25 4.875 10.3555 4.875 6.75C4.875 3.19531 7.76953 0.25 11.375 0.25C14.9297 0.25 17.875 3.19531 17.875 6.75C17.875 10.3555 14.9297 13.25 11.375 13.25ZM9.03906 15.6875H13.6602C18.6875 15.6875 22.75 19.75 22.75 24.7773C22.75 25.5898 22.0391 26.25 21.2266 26.25H1.47266C0.660156 26.25 0 25.5898 0 24.7773C0 19.75 4.01172 15.6875 9.03906 15.6875Z" fill="#BC6C25"/>
<path d="M11.375 13.25C7.76953 13.25 4.875 10.3555 4.875 6.75C4.875 3.19531 7.76953 0.25 11.375 0.25C14.9297 0.25 17.875 3.19531 17.875 6.75C17.875 10.3555 14.9297 13.25 11.375 13.25ZM9.03906 15.6875H13.6602C18.6875 15.6875 22.75 19.75 22.75 24.7773C22.75 25.5898 22.0391 26.25 21.2266 26.25H1.47266C0.660156 26.25 0 25.5898 0 24.7773C0 19.75 4.01172 15.6875 9.03906 15.6875Z" fill="white"/>
</svg>